<?xml version="1.0" encoding="UTF-8"?>
<svg version="1.1" xmlns="http://www.w3.org/2000/svg" width="512" height="512">
<path d="M0 0 C1.52718286 0.2821223 3.0545281 0.56336701 4.58203125 0.84375 C15.91236444 3.08867332 15.91236444 3.08867332 20 7.0625 C23.04959639 11.62705718 22.91894002 16.74778247 22 22 C19.68036897 26.99612838 17.09488942 29.00634762 12 31 C11.34 31 10.68 31 10 31 C9.51842161 34.31215393 9.04018889 37.62478306 8.5625 40.9375 C8.36043945 42.32678711 8.36043945 42.32678711 8.15429688 43.74414062 C7.75860251 46.49469903 7.37567606 49.24664014 7 52 C6.89486084 52.75095947 6.78972168 53.50191895 6.68139648 54.27563477 C5.88401204 60.54079829 5.88575901 66.75407916 5.9375 73.0625 C5.94426758 74.64708008 5.94426758 74.64708008 5.95117188 76.26367188 C5.96284082 78.84250908 5.97921115 81.42122294 6 84 C7.05832031 84.08378906 8.11664063 84.16757813 9.20703125 84.25390625 C33.50342816 87.33027689 57.88645493 100.56725814 78 114 C78.58410645 114.38833008 79.16821289 114.77666016 79.77001953 115.17675781 C81.1812747 116.11594545 82.59083085 117.05768536 84 118 C87.71487847 116.45595367 89.99622804 114.19367814 92.7734375 111.31640625 C93.6809375 110.38892578 94.5884375 109.46144531 95.5234375 108.50585938 C96.9499278 107.03598612 98.37382903 105.56371546 99.79492188 104.08862305 C101.1768767 102.65803147 102.5688225 101.23711284 103.9609375 99.81640625 C104.78384277 98.96506104 105.60674805 98.11371582 106.45458984 97.23657227 C110.17900441 93.96404572 113.51384986 92.18914638 118.4375 91.5625 C127.21851282 92.64086999 132.79665244 99.32927933 138.765625 105.296875 C139.68083923 106.20447571 140.59605347 107.11207642 141.53900146 108.04718018 C143.46707033 109.96186625 145.3891742 111.88231203 147.30761719 113.80664062 C149.75411551 116.25903951 152.21838933 118.69267342 154.68793106 121.12183762 C157.0586737 123.46036872 159.41098537 125.81713129 161.765625 128.171875 C162.64688049 129.03673523 163.52813599 129.90159546 164.43609619 130.79266357 C173.26378414 139.72076742 173.26378414 139.72076742 174 146 C173.8376784 152.09185125 171.75606553 156.04102114 167.50436401 160.28871155 C166.90222076 160.8547258 166.30007751 161.42074005 165.6796875 162.00390625 C164.75169846 162.91703835 164.75169846 162.91703835 163.80496216 163.84861755 C161.84424941 165.77045269 159.86054935 167.66637027 157.875 169.5625 C156.53355344 170.86879879 155.19369195 172.1767274 153.85546875 173.48632812 C150.58833691 176.67668858 147.30036907 179.84404985 144 183 C144.51804199 183.94721924 145.03608398 184.89443848 145.56982422 185.87036133 C149.80208462 193.66714982 153.75411473 201.47123084 157.125 209.6875 C157.54604004 210.71077393 157.96708008 211.73404785 158.40087891 212.78833008 C179.10983004 264.09927142 179.55405758 323.93252724 158.375 375.25 C152.01123422 390.16128215 144.60209568 404.89946637 135 418 C134.23171875 419.051875 133.4634375 420.10375 132.671875 421.1875 C125.50710304 430.8164072 117.49182816 439.52175876 109 448 C108.31421875 448.7321875 107.6284375 449.464375 106.921875 450.21875 C77.94410023 480.65583716 35.14424178 500.53436169 -6 507 C-7.56645264 507.26055176 -7.56645264 507.26055176 -9.16455078 507.52636719 C-19.91543109 509.15841802 -30.51863791 509.39801289 -41.375 509.375 C-42.29797882 509.37478851 -43.22095764 509.37457703 -44.17190552 509.37435913 C-59.13372858 509.3402252 -73.37195531 508.36910113 -88 505 C-88.82822266 504.81808105 -89.65644531 504.63616211 -90.50976562 504.44873047 C-96.08443621 503.20211648 -101.54828594 501.70345216 -107 500 C-107.84030762 499.73767578 -108.68061523 499.47535156 -109.54638672 499.20507812 C-131.27250905 492.23791577 -151.80029352 481.78192386 -170 468 C-170.93714844 467.29230469 -171.87429687 466.58460938 -172.83984375 465.85546875 C-178.02002449 461.80870197 -182.90371944 457.45746163 -187.75390625 453.0234375 C-189.52725596 451.42588072 -191.31683982 449.91616508 -193.1875 448.4375 C-196.0541625 445.95305917 -198.44554056 443.36345219 -200.89453125 440.4765625 C-202.49536964 438.59357264 -204.11584469 436.7413253 -205.76171875 434.8984375 C-242.42328115 393.5297998 -260.68952347 337.19988912 -257.73828125 282.23828125 C-255.36867959 246.66142807 -245.30396503 214.11140616 -228 183 C-228.83772949 182.19892822 -229.67545898 181.39785645 -230.53857422 180.57250977 C-233.66134498 177.57706641 -236.76037586 174.55799872 -239.85302734 171.53149414 C-241.19113312 170.22844861 -242.53547294 168.93177159 -243.88623047 167.6418457 C-245.83440611 165.77921726 -247.75851174 163.89432431 -249.6796875 162.00390625 C-250.28183075 161.437892 -250.883974 160.87187775 -251.50436401 160.28871155 C-255.75725891 156.03982888 -257.83489885 152.09266623 -258 146 C-257.11638996 138.20118352 -250.81181452 133.12218049 -245.51171875 127.91796875 C-244.56543247 126.97339684 -243.62003832 126.02793042 -242.67549133 125.08161926 C-240.70193071 123.10970443 -238.7201976 121.14653539 -236.73168945 119.18969727 C-234.19286878 116.69060615 -231.67213417 114.17417604 -229.15686321 111.6514082 C-227.20919424 109.70065936 -225.25398519 107.75761617 -223.29627419 105.81694984 C-221.91382299 104.44486965 -220.5362888 103.06784095 -219.15885925 101.6907196 C-218.30810318 100.8558754 -217.45734711 100.02103119 -216.58081055 99.16088867 C-215.83929245 98.42778976 -215.09777435 97.69469086 -214.33378601 96.93937683 C-210.6651561 93.89074434 -207.29871737 92.1652913 -202.5625 91.5625 C-193.01425673 92.73509128 -186.92711356 100.72176905 -180.5625 107.25 C-179.53520986 108.2923616 -178.50722072 109.33403479 -177.47851562 110.375 C-174.97755982 112.90877202 -172.48622114 115.4517585 -170 118 C-166.5902889 116.72781471 -163.63363383 115.26099391 -160.5859375 113.27734375 C-139.7760791 99.93552314 -115.15271326 85.96553559 -90 84 C-89.3882393 67.78128256 -90.86887129 52.43712316 -93.6328125 36.45410156 C-94 34 -94 34 -94 31 C-94.886875 30.773125 -95.77375 30.54625 -96.6875 30.3125 C-100.95434135 28.62186475 -103.92493804 26.15012391 -106 22 C-106.67986959 16.81061566 -107.04792058 11.5418721 -104 7.0625 C-99.25596045 2.45054508 -92.56639465 1.57510542 -86.28369141 0.421875 C-84.81337452 0.15025777 -83.34631705 -0.13999949 -81.88427734 -0.453125 C-56.28385019 -5.91831856 -25.54845117 -5.47171998 0 0 Z " fill="#518DE4" transform="translate(298,3)"/>
<path d="M0 0 C0.8022702 0.00209473 1.60454041 0.00418945 2.43112183 0.00634766 C40.13191503 0.20829365 73.56333878 15.86947764 100.75 41.5 C101.47445312 42.16 102.19890625 42.82 102.9453125 43.5 C118.70224921 58.40978957 130.32370557 77.8755388 136.75 98.5 C137.17925781 99.73878906 137.60851562 100.97757812 138.05078125 102.25390625 C150.28065116 137.99758397 146.10666103 177.35526592 129.94921875 211.2109375 C124.24288316 222.61325705 117.18001649 232.93843767 108.75 242.5 C107.91984375 243.47453125 107.0896875 244.4490625 106.234375 245.453125 C84.64046918 270.3473221 53.0636264 286.38428921 20.75 291.5 C19.60660156 291.68433594 18.46320313 291.86867188 17.28515625 292.05859375 C10.66519941 292.84876374 3.97074421 292.74436947 -2.6875 292.75 C-3.76138474 292.75101212 -3.76138474 292.75101212 -4.85696411 292.75204468 C-15.63299352 292.73590635 -25.76871306 292.20627938 -36.25 289.5 C-36.88695801 289.35498047 -37.52391602 289.20996094 -38.18017578 289.06054688 C-57.61329108 284.63238447 -76.86809066 275.15217535 -92.25 262.5 C-93.12422607 261.79641357 -93.12422607 261.79641357 -94.01611328 261.07861328 C-121.00534093 239.25554545 -138.56926595 210.28066918 -146.25 176.5 C-146.42805176 175.82227539 -146.60610352 175.14455078 -146.78955078 174.44628906 C-148.59728356 166.87209725 -148.55340895 159.29848908 -148.51074219 151.56103516 C-148.50008498 149.26828158 -148.51065368 146.97632261 -148.5234375 144.68359375 C-148.53756832 131.82107682 -147.21656333 119.50706846 -143.5625 107.125 C-143.30122314 106.23143799 -143.03994629 105.33787598 -142.77075195 104.41723633 C-136.91018047 85.0085351 -127.34313051 66.98755581 -114.25 51.5 C-113.81961426 50.98985352 -113.38922852 50.47970703 -112.94580078 49.95410156 C-84.32324654 16.48152608 -43.65661989 -0.26461668 0 0 Z " fill="#E2DFF3" transform="translate(258.25,150.5)"/>
<path d="M0 0 C1.52718286 0.2821223 3.0545281 0.56336701 4.58203125 0.84375 C15.91236444 3.08867332 15.91236444 3.08867332 20 7.0625 C23.04959639 11.62705718 22.91894002 16.74778247 22 22 C19.68036897 26.99612838 17.09488942 29.00634762 12 31 C11.34 31 10.68 31 10 31 C9.51842161 34.31215393 9.04018889 37.62478306 8.5625 40.9375 C8.36043945 42.32678711 8.36043945 42.32678711 8.15429688 43.74414062 C7.75860251 46.49469903 7.37567606 49.24664014 7 52 C6.89486084 52.75095947 6.78972168 53.50191895 6.68139648 54.27563477 C5.88401204 60.54079829 5.88575901 66.75407916 5.9375 73.0625 C5.94201172 74.11888672 5.94652344 75.17527344 5.95117188 76.26367188 C5.96284082 78.84250908 5.97921115 81.42122294 6 84 C5.19820313 83.87882812 4.39640625 83.75765625 3.5703125 83.6328125 C0.40687439 83.16654611 -2.75903573 82.72354585 -5.92724609 82.29101562 C-7.85657936 82.02013633 -9.78204369 81.72208381 -11.70703125 81.421875 C-35.0223869 78.05919637 -59.80768646 78.5431297 -82.78466797 83.6328125 C-85.22316356 84.03698898 -87.53259973 84.06082959 -90 84 C-89.9685791 83.16698364 -89.9685791 83.16698364 -89.93652344 82.31713867 C-89.43353162 66.67504804 -90.96816732 51.86292474 -93.6328125 36.45410156 C-94 34 -94 34 -94 31 C-94.886875 30.773125 -95.77375 30.54625 -96.6875 30.3125 C-100.95434135 28.62186475 -103.92493804 26.15012391 -106 22 C-106.67986959 16.81061566 -107.04792058 11.5418721 -104 7.0625 C-99.25596045 2.45054508 -92.56639465 1.57510542 -86.28369141 0.421875 C-84.81337452 0.15025777 -83.34631705 -0.13999949 -81.88427734 -0.453125 C-56.28385019 -5.91831856 -25.54845117 -5.47171998 0 0 Z " fill="#E91D64" transform="translate(298,3)"/>
<path d="M0 0 C2.87980912 1.1749963 4.13406043 2.1829958 6.0078125 4.63671875 C6.51054687 5.27738281 7.01328125 5.91804687 7.53125 6.578125 C7.89476562 7.07183594 8.25828125 7.56554687 8.6328125 8.07421875 C7.8490625 9.06421875 7.0653125 10.05421875 6.2578125 11.07421875 C3.72201094 14.43755462 1.47799376 17.90257672 -0.70581055 21.49731445 C-6.19846994 30.53779573 -12.32253843 38.9148427 -18.88769531 47.20410156 C-20.1710127 48.82624862 -21.43852943 50.46087202 -22.703125 52.09765625 C-31.98573878 63.8648358 -42.64171756 74.03229497 -54.72314453 82.86230469 C-57.6394969 85.01210765 -60.49962076 87.23502683 -63.3671875 89.44921875 C-64.3984375 90.24070312 -65.4296875 91.0321875 -66.4921875 91.84765625 C-68.39318422 93.31989556 -70.26919388 94.82503656 -72.1171875 96.36328125 C-74.3671875 98.07421875 -74.3671875 98.07421875 -76.3671875 98.07421875 C-76.32078125 98.78707031 -76.274375 99.49992187 -76.2265625 100.234375 C-75.99076939 106.4913135 -76.00522352 111.30332065 -80.3671875 116.07421875 C-84.65663367 120.12650804 -88.62042139 121.41816666 -94.4921875 121.63671875 C-100.40874771 121.36135683 -103.71251673 119.91747269 -107.796875 115.54296875 C-112.34241029 110.30404672 -112.77624224 106.99942535 -112.7109375 100.19140625 C-112.03750214 94.08457197 -109.08180773 90.56022295 -104.5546875 86.63671875 C-101.3671875 85.07421875 -101.3671875 85.07421875 -97.48828125 84.84765625 C-93.97280468 84.44757628 -93.43247963 84.13544195 -90.671875 81.546875 C-89.83907828 80.42682571 -89.03036735 79.28860125 -88.2421875 78.13671875 C-87.3053486 76.86149323 -86.36781305 75.58677929 -85.4296875 74.3125 C-84.93855469 73.62881348 -84.44742187 72.94512695 -83.94140625 72.24072266 C-81.12816014 68.36901887 -78.18122792 64.600785 -75.2421875 60.82421875 C-74.64575439 60.0549707 -74.04932129 59.28572266 -73.43481445 58.49316406 C-68.98036883 52.77876954 -64.37604761 47.31581377 -59.3671875 42.07421875 C-58.80128906 41.46835938 -58.23539062 40.8625 -57.65234375 40.23828125 C-47.54584434 29.72752187 -35.27950288 21.38341209 -23.3671875 13.07421875 C-22.48595215 12.45772461 -21.6047168 11.84123047 -20.69677734 11.20605469 C-18.01814247 9.3479588 -15.32172106 7.51936211 -12.6171875 5.69921875 C-11.78388916 5.12139648 -10.95059082 4.54357422 -10.09204102 3.94824219 C-4.26374665 0.09398049 -4.26374665 0.09398049 0 0 Z " fill="#FA486D" transform="translate(350.3671875,193.92578125)"/>
<path d="M0 0 C4.9997191 2.50838283 8.81861353 5.39645247 12.71484375 9.421875 C13.21544815 9.92672424 13.71605255 10.43157349 14.23182678 10.95172119 C15.80765846 12.544162 17.37265161 14.14677264 18.9375 15.75 C20.01296825 16.8405381 21.08913431 17.9303885 22.16601562 19.01953125 C24.78544757 21.6717959 27.39527543 24.33328089 30 27 C28.85819428 30.42541716 28.14801848 30.87768713 25.3125 32.9375 C12.46192978 42.62674783 0.69382958 53.11454146 -9 66 C-10.21566582 67.55301808 -11.43135084 69.1060212 -12.64746094 70.65869141 C-17.77456572 77.23155435 -22.47919904 83.99149572 -27 91 C-31.08069525 89.36195717 -33.91802486 86.45701864 -37.0078125 83.43359375 C-37.57450653 82.88067154 -38.14120056 82.32774933 -38.72506714 81.7580719 C-39.91968911 80.58668035 -41.11137155 79.41228442 -42.30029297 78.23510742 C-44.11045431 76.45182967 -45.94316329 74.69406308 -47.77734375 72.93554688 C-48.93898574 71.79056791 -50.09919 70.6441281 -51.2578125 69.49609375 C-51.80365997 68.98010117 -52.34950745 68.46410858 -52.91189575 67.93247986 C-56.97327279 63.82367133 -58.79131827 59.82115069 -59 54 C-58.12639567 46.20402901 -51.80678357 41.11724056 -46.51171875 35.91796875 C-45.56543247 34.97339684 -44.62003832 34.02793042 -43.67549133 33.08161926 C-41.70193071 31.10970443 -39.7201976 29.14653539 -37.73168945 27.18969727 C-35.19286878 24.69060615 -32.67213417 22.17417604 -30.15686321 19.6514082 C-28.20919424 17.70065936 -26.25398519 15.75761617 -24.29627419 13.81694984 C-22.91382299 12.44486965 -21.5362888 11.06784095 -20.15885925 9.6907196 C-19.30810318 8.8558754 -18.45734711 8.02103119 -17.58081055 7.16088867 C-16.83929245 6.42778976 -16.09777435 5.69469086 -15.33378601 4.93937683 C-10.50102237 0.92334889 -6.27857593 -0.77105318 0 0 Z " fill="#FBC93C" transform="translate(99,95)"/>
<path d="M0 0 C6.77059344 3.14629711 11.52970971 8.0621675 16.765625 13.296875 C18.13844635 14.65827606 18.13844635 14.65827606 19.53900146 16.04718018 C21.46707033 17.96186625 23.3891742 19.88231203 25.30761719 21.80664062 C27.75411551 24.25903951 30.21838933 26.69267342 32.68793106 29.12183762 C35.0586737 31.46036872 37.41098537 33.81713129 39.765625 36.171875 C40.64688049 37.03673523 41.52813599 37.90159546 42.43609619 38.79266357 C51.26475938 47.72175375 51.26475938 47.72175375 52 54 C51.80214403 61.13146974 48.7602346 65.24469991 43.75 70.00390625 C42.82912598 70.91703835 42.82912598 70.91703835 41.88964844 71.84861755 C40.5999184 73.12131006 39.30190025 74.38565338 37.99609375 75.6418457 C35.98973451 77.57237752 34.00895533 79.52649068 32.03125 81.48632812 C30.77222884 82.72277675 29.51185915 83.95785407 28.25 85.19140625 C27.65413086 85.77563858 27.05826172 86.35987091 26.44433594 86.96180725 C22.23563925 91 22.23563925 91 20 91 C18.44045394 88.82090825 16.99227925 86.63739269 15.5625 84.375 C1.63036497 62.96013261 -15.81084264 43.43750201 -37 29 C-34.69302116 23.46019411 -29.95826045 19.62443475 -25.77929688 15.46362305 C-24.26016196 13.94764087 -22.75481847 12.41884968 -21.25 10.88867188 C-20.2768538 9.91325159 -19.3029202 8.93861609 -18.328125 7.96484375 C-17.01183105 6.64407837 -17.01183105 6.64407837 -15.66894531 5.29663086 C-10.73603651 1.05185652 -6.52450874 -0.80125546 0 0 Z " fill="#FBCC37" transform="translate(420,95)"/>
<path d="M0 0 C0.76957031 0.1551709 1.53914063 0.3103418 2.33203125 0.47021484 C15.16623221 3.08015496 15.16623221 3.08015496 17.9296875 6.12890625 C18.28289062 6.74636719 18.63609375 7.36382812 19 8 C13.85962269 13.6446105 8.87885449 17.67474461 2 21 C1.34 21.33 0.68 21.66 0 22 C-1.39381247 22.0916994 -2.79192655 22.12193744 -4.18875122 22.12025452 C-5.50548325 22.12231651 -5.50548325 22.12231651 -6.84881592 22.12442017 C-7.81410217 22.12082489 -8.77938843 22.11722961 -9.77392578 22.11352539 C-11.29592087 22.11374443 -11.29592087 22.11374443 -12.84866333 22.1139679 C-16.21423454 22.11326928 -19.57975092 22.10547922 -22.9453125 22.09765625 C-25.27415944 22.09579189 -27.60300677 22.09436807 -29.93185425 22.09336853 C-36.07050656 22.08954476 -42.20913533 22.07971566 -48.34777832 22.06866455 C-54.60815106 22.05844742 -60.86852759 22.05387026 -67.12890625 22.04882812 C-79.4192812 22.03809329 -91.70963864 22.02101853 -104 22 C-104.33 22.66 -104.66 23.32 -105 24 C-107.01292189 19.97415621 -106.57318576 15.36827884 -106 11 C-104.75631479 7.57517843 -103.09104415 5.90258198 -100 4 C-95.50311489 2.31571212 -90.99058658 1.28585576 -86.28369141 0.421875 C-84.81337452 0.15025777 -83.34631705 -0.13999949 -81.88427734 -0.453125 C-56.36186512 -5.90166389 -25.46203812 -5.57712073 0 0 Z " fill="#FE8D9E" transform="translate(298,3)"/>
<path d="M0 0 C2.87980912 1.1749963 4.13406043 2.1829958 6.0078125 4.63671875 C6.51054687 5.27738281 7.01328125 5.91804687 7.53125 6.578125 C7.89476562 7.07183594 8.25828125 7.56554687 8.6328125 8.07421875 C5.9651299 10.82274022 3.26980432 13.4162212 0.33044434 15.87283325 C-3.1166749 18.81174904 -6.31035977 21.9256034 -9.46679688 25.17138672 C-10.63656181 26.36411908 -11.80636324 27.55681565 -12.97619629 28.7494812 C-13.58461868 29.37175472 -14.19304108 29.99402824 -14.81990051 30.63515854 C-18.07396877 33.95842081 -21.34510297 37.26484228 -24.61328125 40.57421875 C-28.75723374 44.77219384 -32.89585829 48.97503969 -37.01611328 53.19628906 C-40.36117776 56.6224487 -43.72305974 60.03127208 -47.09687805 63.42911148 C-48.37580875 64.72346675 -49.64842676 66.02409164 -50.91447449 67.33105087 C-52.68294677 69.15504176 -54.47208803 70.95607246 -56.26757812 72.75341797 C-56.78310745 73.29568527 -57.29863678 73.83795258 -57.82978821 74.39665222 C-60.64824416 77.16863517 -62.13386422 78.04983152 -66.11877441 78.46633911 C-69.2589833 78.08728023 -70.64115709 77.76439332 -73.0546875 75.82421875 C-73.62703125 75.37175781 -74.199375 74.91929687 -74.7890625 74.453125 C-76.74481716 72.74426016 -78.60245115 70.98013401 -80.3671875 69.07421875 C-78.70362052 65.31073936 -76.31299804 62.17860321 -73.8046875 58.94921875 C-73.36213623 58.3773584 -72.91958496 57.80549805 -72.46362305 57.21630859 C-68.33964222 51.94355179 -63.96043688 46.94427412 -59.3671875 42.07421875 C-58.79613281 41.46191406 -58.22507812 40.84960938 -57.63671875 40.21875 C-47.52454842 29.72226916 -35.27487102 21.38018123 -23.3671875 13.07421875 C-22.04533447 12.14947754 -22.04533447 12.14947754 -20.69677734 11.20605469 C-18.01814247 9.3479588 -15.32172106 7.51936211 -12.6171875 5.69921875 C-11.78388916 5.12139648 -10.95059082 4.54357422 -10.09204102 3.94824219 C-4.26374665 0.09398049 -4.26374665 0.09398049 0 0 Z M-81.3671875 69.07421875 C-81.0371875 70.39421875 -80.7071875 71.71421875 -80.3671875 73.07421875 C-81.6871875 73.40421875 -83.0071875 73.73421875 -84.3671875 74.07421875 C-82.4921875 70.19921875 -82.4921875 70.19921875 -81.3671875 69.07421875 Z " fill="#FE7A8F" transform="translate(350.3671875,193.92578125)"/>
<path d="M0 0 C3.59403709 2.05123093 5.78187002 5.21798482 8.375 8.375 C2.19451562 14.62497937 -3.99402593 20.86683473 -10.19301987 27.09845638 C-13.07117538 29.99227115 -15.94647245 32.88881148 -18.81542969 35.79174805 C-21.58397166 38.59287383 -24.35976718 41.38661824 -27.1407547 44.17538643 C-28.20072565 45.24090262 -29.2580515 46.30905687 -30.31267548 47.37986565 C-31.78976069 48.87871185 -33.27595374 50.36792119 -34.76464844 51.85522461 C-35.60848083 52.70571884 -36.45231323 53.55621307 -37.32171631 54.43247986 C-39.56425309 56.32376788 -40.71230017 57.23195089 -43.625 57.375 C-44.615 56.715 -45.605 56.055 -46.625 55.375 C-46.625 54.715 -46.625 54.055 -46.625 53.375 C-47.285 53.375 -47.945 53.375 -48.625 53.375 C-49.12 51.89 -49.12 51.89 -49.625 50.375 C-51.48311713 48.70910763 -51.48311713 48.70910763 -53.6875 47.1875 C-54.42097656 46.65769531 -55.15445313 46.12789062 -55.91015625 45.58203125 C-56.47605469 45.18371094 -57.04195312 44.78539062 -57.625 44.375 C-57.955 45.035 -58.285 45.695 -58.625 46.375 C-58.05387575 42.60680967 -56.50053981 40.8713146 -53.84301758 38.20483398 C-53.04160843 37.39396835 -52.24019928 36.58310272 -51.414505 35.74766541 C-50.54166367 34.88089676 -49.66882233 34.01412811 -48.76953125 33.12109375 C-47.8751384 32.22383072 -46.98074554 31.32656769 -46.05924988 30.40211487 C-44.16376824 28.50459046 -42.26553522 26.61039604 -40.36206055 24.72094727 C-37.9320411 22.30797062 -35.51567463 19.8818416 -33.1031847 17.45135403 C-30.79094289 15.12560718 -28.46723591 12.81138432 -26.14453125 10.49609375 C-24.85045097 9.19290443 -24.85045097 9.19290443 -23.53022766 7.86338806 C-16.43691126 0.85215718 -10.18980387 -4.56784311 0 0 Z " fill="#FDEB9A" transform="translate(102.625,96.625)"/>
<path d="M0 0 C3 1 3 1 4 3 C4.52383318 8.25550671 4.61997842 12.66466186 2.375 17.5 C-0.23894361 20.25151959 -2.4779459 21.62180492 -6 23 C-6.66 23 -7.32 23 -8 23 C-8.33 23.66 -8.66 24.32 -9 25 C-9 24.34 -9 23.68 -9 23 C-9.99660645 23.07798828 -10.99321289 23.15597656 -12.02001953 23.23632812 C-22.48052611 23.98940973 -32.78809092 23.96147534 -43.26367188 23.59078979 C-56.19730782 23.14111741 -69.06628002 22.85516274 -82 23.4375 C-83.0715332 23.48543701 -84.14306641 23.53337402 -85.24707031 23.58276367 C-87.24651583 23.67584567 -89.24587304 23.77085275 -91.24511719 23.86816406 C-112.82738133 24.90099131 -112.82738133 24.90099131 -120 20 C-120.66 19.34 -121.32 18.68 -122 18 C-122 16.68 -122 15.36 -122 14 C-120.71484497 13.99635437 -119.42968994 13.99270874 -118.10559082 13.98895264 C-105.98182802 13.95197787 -93.85831863 13.89417765 -81.73474884 13.81609726 C-75.50219179 13.77662358 -69.26977601 13.74443433 -63.03710938 13.72900391 C-57.019868 13.71383695 -51.00301501 13.67938979 -44.98594666 13.63169098 C-42.69273763 13.61687775 -40.39947315 13.60895902 -38.10621643 13.60811615 C-34.88875133 13.60574468 -31.67235796 13.57864871 -28.45507812 13.54589844 C-27.51136353 13.5509288 -26.56764893 13.55595917 -25.59533691 13.56114197 C-16.67936082 13.42114582 -10.95368189 10.345144 -4.5 4.25 C-3.6440625 3.45078125 -2.788125 2.6515625 -1.90625 1.828125 C-0.96265625 0.92320313 -0.96265625 0.92320313 0 0 Z " fill="#DC1056" transform="translate(316,11)"/>
<path d="M0 0 C3.95478251 2.91900614 7.41112181 6.50974362 9.625 10.9375 C10.30831069 18.31949585 10.40894712 24.07716478 5.625 29.9375 C1.32863124 33.98600133 -2.62336248 35.28126659 -8.5 35.5 C-14.41656021 35.22463808 -17.72032923 33.78075394 -21.8046875 29.40625 C-26.35022279 24.16732797 -26.78405474 20.8627066 -26.71875 14.0546875 C-26.05147718 8.00373627 -23.04594607 4.56769129 -18.8125 0.4375 C-12.71713535 -2.22229548 -6.29840136 -1.98283006 0 0 Z " fill="#FBAB30" transform="translate(264.375,280.0625)"/>
<path d="M0 0 C-8.98234605 9.16758695 -17.98609652 18.31354515 -27.01791477 27.43241215 C-31.21096019 31.66723376 -35.39623137 35.9091836 -39.56469727 40.16821289 C-43.58670542 44.27705125 -47.62786274 48.36611853 -51.68311882 52.44213676 C-53.22792519 54.00174165 -54.76566452 55.56837898 -56.296175 57.14201546 C-58.43908878 59.34288535 -60.60563038 61.5175476 -62.77954102 63.68774414 C-63.40892578 64.34589111 -64.03831055 65.00403809 -64.68676758 65.68212891 C-69.0873639 70.0018805 -69.0873639 70.0018805 -73.79893494 69.99217224 C-76.83778244 69.05027944 -78.67628351 68.13781917 -81 66 C-60.92835759 41.11532896 -39.74755397 22.35879359 -13.125 4.625 C-12.27494385 4.04717773 -11.4248877 3.46935547 -10.54907227 2.87402344 C-9.35302368 2.08946777 -9.35302368 2.08946777 -8.1328125 1.2890625 C-7.43043457 0.82193848 -6.72805664 0.35481445 -6.00439453 -0.12646484 C-3.53381536 -1.20316792 -2.51900566 -0.745192 0 0 Z " fill="#FEA1AE" transform="translate(351,195)"/>
<path d="M0 0 C2.875 2.5 2.875 2.5 5 5 C-0.14037731 10.6446105 -5.12114551 14.67474461 -12 18 C-12.66 18.33 -13.32 18.66 -14 19 C-15.39381247 19.0916994 -16.79192655 19.12193744 -18.18875122 19.12025452 C-19.50548325 19.12231651 -19.50548325 19.12231651 -20.84881592 19.12442017 C-21.81410217 19.12082489 -22.77938843 19.11722961 -23.77392578 19.11352539 C-25.29592087 19.11374443 -25.29592087 19.11374443 -26.84866333 19.1139679 C-30.21423454 19.11326928 -33.57975092 19.10547922 -36.9453125 19.09765625 C-39.27415944 19.09579189 -41.60300677 19.09436807 -43.93185425 19.09336853 C-50.07050656 19.08954476 -56.20913533 19.07971566 -62.34777832 19.06866455 C-68.60815106 19.05844742 -74.86852759 19.05387026 -81.12890625 19.04882812 C-93.4192812 19.03809329 -105.70963864 19.02101853 -118 19 C-118.33 19.66 -118.66 20.32 -119 21 C-120.4783226 18.04335481 -120.06032783 15.25770263 -120 12 C-118.10652077 12.02997826 -118.10652077 12.02997826 -116.17478943 12.06056213 C-104.27187224 12.24309902 -92.36923937 12.37796432 -80.46523952 12.46630955 C-74.3452917 12.51325691 -68.2264747 12.57692083 -62.10717773 12.67895508 C-56.20024084 12.77683067 -50.29439065 12.83057609 -44.3867054 12.85389519 C-42.13432773 12.87050999 -39.88200881 12.90295681 -37.63009453 12.95157051 C-34.47141503 13.01703988 -31.31720908 13.02589768 -28.15795898 13.02172852 C-26.76504639 13.07026474 -26.76504639 13.07026474 -25.34399414 13.11978149 C-21.25493787 13.06148944 -18.93789223 12.89616908 -15.90709114 10.00019646 C-14.0107765 7.60956667 -14.0107765 7.60956667 -12.4243784 5.13424587 C-9.31650826 0.47750646 -5.4355875 -0.90593125 0 0 Z " fill="#FD4F78" transform="translate(312,6)"/>
<path d="M0 0 C0.33 0.66 0.66 1.32 1 2 C2.14339844 1.98839844 3.28679687 1.97679687 4.46484375 1.96484375 C5.95572754 1.95546712 7.44661309 1.94636679 8.9375 1.9375 C9.69224609 1.92912109 10.44699219 1.92074219 11.22460938 1.91210938 C13.14994313 1.90347559 15.07535581 1.94775667 17 2 C21.76895458 6.76895458 20.12187605 23.20844608 20.13842773 29.42211914 C20.11893821 34.61519021 20.07726992 39.80746162 20 45 C21.32 45.33 22.64 45.66 24 46 C21.43850372 46.50567729 18.87600535 47.00470132 16.3125 47.5 C15.59126953 47.64308594 14.87003906 47.78617188 14.12695312 47.93359375 C13.06831055 48.13662109 13.06831055 48.13662109 11.98828125 48.34375 C11.34415283 48.46943359 10.70002441 48.59511719 10.03637695 48.72460938 C7.67339539 49.04416856 5.38162432 49.0434009 3 49 C3.02356567 48.11985229 3.02356567 48.11985229 3.04760742 47.22192383 C3.34457452 34.31450556 2.77742345 22.01434208 0.65625 9.2734375 C0.13748441 6.14328157 -0.15592457 3.18346003 0 0 Z " fill="#FDA1AF" transform="translate(205,38)"/>
<path d="M0 0 C0.99 0.33 1.98 0.66 3 1 C3 1.66 3 2.32 3 3 C1.49208698 4.24566727 -0.01872402 5.48830801 -1.5546875 6.69921875 C-3.16322754 7.97342875 -3.16322754 7.97342875 -4 10.1875 C-5.55171031 12.99997494 -8.01850603 13.06462934 -11 14 C-12.69321939 15.29944744 -14.36395804 16.62926214 -16 18 C-18.71368063 18.90456021 -20.25927707 19.12385605 -23.04325867 19.12025452 C-23.8635556 19.12162918 -24.68385254 19.12300385 -25.52900696 19.12442017 C-26.42524277 19.12082489 -27.32147858 19.11722961 -28.24487305 19.11352539 C-29.66467468 19.11374443 -29.66467468 19.11374443 -31.11315918 19.1139679 C-34.24603557 19.11327047 -37.37885273 19.10548599 -40.51171875 19.09765625 C-42.6821947 19.09579147 -44.85267106 19.09436785 -47.02314758 19.09336853 C-52.73927978 19.08954811 -58.45538662 19.07972184 -64.17150879 19.06866455 C-70.00300758 19.05844024 -75.83451046 19.05386872 -81.66601562 19.04882812 C-93.11068823 19.03809918 -104.55534201 19.02102842 -116 19 C-115.67 19.99 -115.34 20.98 -115 22 C-117.91517292 20.92598892 -119.77810176 20.22189824 -122 18 C-122 16.68 -122 15.36 -122 14 C-120.71484497 13.99635437 -119.42968994 13.99270874 -118.10559082 13.98895264 C-105.98182802 13.95197787 -93.85831863 13.89417765 -81.73474884 13.81609726 C-75.50219179 13.77662358 -69.26977601 13.74443433 -63.03710938 13.72900391 C-57.019868 13.71383695 -51.00301501 13.67938979 -44.98594666 13.63169098 C-42.69273763 13.61687775 -40.39947315 13.60895902 -38.10621643 13.60811615 C-34.88875133 13.60574468 -31.67235796 13.57864871 -28.45507812 13.54589844 C-27.51136353 13.5509288 -26.56764893 13.55595917 -25.59533691 13.56114197 C-16.67936082 13.42114582 -10.95368189 10.345144 -4.5 4.25 C-3.6440625 3.45078125 -2.788125 2.6515625 -1.90625 1.828125 C-0.96265625 0.92320313 -0.96265625 0.92320313 0 0 Z " fill="#EB1C5C" transform="translate(316,11)"/>
<path d="M0 0 C0 3 0 3 -1.78430176 5.14506531 C-2.61925171 5.97335342 -3.45420166 6.80164154 -4.31445312 7.6550293 C-4.77287094 8.11388519 -5.23128876 8.57274109 -5.70359802 9.04550171 C-7.22248004 10.56229162 -8.75171632 12.06817683 -10.28125 13.57421875 C-11.33565346 14.62302776 -12.38939705 15.67250054 -13.44250488 16.72261047 C-16.21757455 19.48621952 -19.001535 22.24070219 -21.78741455 24.9934082 C-24.62800215 27.80332122 -27.46012809 30.62173393 -30.29296875 33.43945312 C-35.85371201 38.96801075 -41.42387222 44.48695986 -47 50 C-49.49361571 48.79618552 -51.68143083 47.54571278 -54 46 C-54.33 46.66 -54.66 47.32 -55 48 C-54.42887575 44.23180967 -52.87553981 42.4963146 -50.21801758 39.82983398 C-49.41660843 39.01896835 -48.61519928 38.20810272 -47.789505 37.37266541 C-46.91666367 36.50589676 -46.04382233 35.63912811 -45.14453125 34.74609375 C-44.2501384 33.84883072 -43.35574554 32.95156769 -42.43424988 32.02711487 C-40.53876824 30.12959046 -38.64053522 28.23539604 -36.73706055 26.34594727 C-34.3070411 23.93297062 -31.89067463 21.5068416 -29.4781847 19.07635403 C-27.16594289 16.75060718 -24.84223591 14.43638432 -22.51953125 12.12109375 C-21.22545097 10.81790443 -21.22545097 10.81790443 -19.90522766 9.48838806 C-13.61232705 3.26831036 -9.24024588 -0.55441475 0 0 Z " fill="#FEEFAC" transform="translate(99,95)"/>
<path d="M0 0 C1.32 0.66 2.64 1.32 4 2 C4 5 4 5 2.4375 6.8125 C0.55895386 8.49837474 -1.34050349 10.13144444 -3.27111816 11.75564575 C-6.72390618 14.71251795 -9.93199129 17.83988718 -13.09960938 21.09716797 C-14.26937431 22.28990033 -15.43917574 23.4825969 -16.60900879 24.67526245 C-17.21743118 25.29753597 -17.82585358 25.91980949 -18.45271301 26.56093979 C-21.70678127 29.88420206 -24.97791547 33.19062353 -28.24609375 36.5 C-32.39004624 40.69797509 -36.52867079 44.90082094 -40.64892578 49.12207031 C-43.99399026 52.54822995 -47.35587224 55.95705333 -50.72969055 59.35489273 C-52.00862125 60.649248 -53.28123926 61.94987289 -54.54728699 63.25683212 C-56.31575927 65.08082301 -58.10490053 66.88185371 -59.90039062 68.67919922 C-60.41591995 69.22146652 -60.93144928 69.76373383 -61.46260071 70.32243347 C-64.27478455 73.08824773 -65.76880138 73.97523518 -69.74279785 74.40090942 C-74.47320625 73.8186719 -76.36112285 71.97051196 -80 69 C-79.505 68.01 -79.505 68.01 -79 67 C-78.278125 67.515625 -77.55625 68.03125 -76.8125 68.5625 C-74.19333741 70.17193073 -74.19333741 70.17193073 -71.75556946 69.99281311 C-67.60639112 68.49789211 -65.14448865 65.66843167 -62.09838867 62.55249023 C-61.08779892 61.54277664 -61.08779892 61.54277664 -60.05679321 60.51266479 C-57.83423817 58.28732505 -55.62618303 56.04815708 -53.41796875 53.80859375 C-51.87899174 52.26215579 -50.33912869 50.71659912 -48.79841614 49.17189026 C-44.74700806 45.10521465 -40.70775574 41.02666986 -36.67089844 36.94555664 C-32.54892608 32.78265632 -28.41559753 28.63106586 -24.28320312 24.47851562 C-16.17763243 16.33005421 -8.08485552 8.16901164 0 0 Z " fill="#FE617C" transform="translate(354,198)"/>
<path d="M0 0 C-8.98234605 9.16758695 -17.98609652 18.31354515 -27.01791477 27.43241215 C-31.21096019 31.66723376 -35.39623137 35.9091836 -39.56469727 40.16821289 C-43.58670542 44.27705125 -47.62786274 48.36611853 -51.68311882 52.44213676 C-53.22792519 54.00174165 -54.76566452 55.56837898 -56.296175 57.14201546 C-58.43908878 59.34288535 -60.60563038 61.5175476 -62.77954102 63.68774414 C-63.40892578 64.34589111 -64.03831055 65.00403809 -64.68676758 65.68212891 C-66.40413989 67.36795083 -67.91950193 68.78982939 -70 70 C-73.95127869 69.89451599 -73.95127869 69.89451599 -77 69 C-77.33 67.68 -77.66 66.36 -78 65 C-77.67 65.66 -77.34 66.32 -77 67 C-72.88527938 64.76850154 -69.72335088 61.99839854 -66.46289062 58.68994141 C-65.93374557 58.16108841 -65.40460052 57.63223541 -64.85942078 57.08735657 C-63.1202445 55.34679293 -61.38825453 53.59926029 -59.65625 51.8515625 C-58.44269951 50.63427718 -57.22870323 49.41743615 -56.01428223 48.20101929 C-52.8224792 45.0015953 -49.63672229 41.79621668 -46.45220947 38.58953857 C-43.22043671 35.33735568 -39.9830491 32.09077318 -36.74609375 28.84375 C-31.51256079 23.5926672 -26.28241218 18.33824272 -21.05693054 13.07914734 C-19.70514365 11.71891132 -18.35258639 10.35944102 -17 9 C-16.10406128 8.09349701 -15.20812256 7.18699402 -14.28503418 6.25302124 C-12.25096968 4.24745363 -10.33541972 2.66005 -7.9375 1.125 C-7.28652344 0.69445312 -6.63554687 0.26390625 -5.96484375 -0.1796875 C-3.53206997 -1.19535846 -2.46983349 -0.7253068 0 0 Z " fill="#FE90A0" transform="translate(351,195)"/>
<path d="M0 0 C1.32 0.66 2.64 1.32 4 2 C4 6.06542363 2.58834379 6.79160435 -0.25097656 9.63916016 C-1.17904114 10.57668121 -2.10710571 11.51420227 -3.06329346 12.48013306 C-4.08868985 13.50015914 -5.11447667 14.51979287 -6.140625 15.5390625 C-7.18523402 16.5856919 -8.22939732 17.63276633 -9.27313232 18.68026733 C-11.46418511 20.8757471 -13.66058259 23.06569909 -15.86083984 25.25195312 C-18.68007505 28.05411745 -21.48565732 30.86950437 -24.28735733 33.689188 C-26.44208017 35.85475654 -28.60390404 38.01312221 -30.76793671 40.169384 C-31.80515543 41.20460181 -32.84015113 42.2420519 -33.8728714 43.28175735 C-35.31859081 44.73510167 -36.77359085 46.17847128 -38.23144531 47.61962891 C-39.05751282 48.44330963 -39.88358032 49.26699036 -40.73468018 50.1156311 C-42.96012177 51.96682795 -44.12501464 52.84597464 -47 53 C-47.99 52.34 -48.98 51.68 -50 51 C-50 50.34 -50 49.68 -50 49 C-50.66 49 -51.32 49 -52 49 C-51.67 48.01 -51.34 47.02 -51 46 C-49.35 46.66 -47.7 47.32 -46 48 C-45.75798859 47.43267151 -45.51597717 46.86534302 -45.26663208 46.28082275 C-43.75147793 43.55248663 -41.94782424 41.70812239 -39.73388672 39.50683594 C-38.85312469 38.62622498 -37.97236267 37.74561401 -37.06491089 36.83831787 C-36.10327649 35.88689569 -35.1415328 34.93558397 -34.1796875 33.984375 C-33.19561893 33.00403871 -32.21199258 32.02325832 -31.22879028 31.04205322 C-28.64557286 28.46645533 -26.05640488 25.89692143 -23.46594238 23.32861328 C-20.8213238 20.70448933 -18.1823899 18.07466229 -15.54296875 15.4453125 C-10.36751928 10.2912833 -5.18576878 5.14364843 0 0 Z " fill="#FCE177" transform="translate(106,101)"/>
<path d="M0 0 C0.33 0.66 0.66 1.32 1 2 C2.14339844 1.98839844 3.28679687 1.97679687 4.46484375 1.96484375 C5.95572754 1.95546712 7.44661309 1.94636679 8.9375 1.9375 C9.69224609 1.92912109 10.44699219 1.92074219 11.22460938 1.91210938 C13.14994313 1.90347559 15.07535581 1.94775667 17 2 C21.76895458 6.76895458 20.12187605 23.20844608 20.13842773 29.42211914 C20.11893821 34.61519021 20.07726992 39.80746162 20 45 C21.32 45.33 22.64 45.66 24 46 C22.35 46 20.7 46 19 46 C19 37.42 19 28.84 19 20 C13.72 20 8.44 20 3 20 C2.505 17.628125 2.01 15.25625 1.5 12.8125 C1.34337891 12.07491455 1.18675781 11.3373291 1.02539062 10.57739258 C0.29377874 6.99433304 -0.17038305 3.65613624 0 0 Z " fill="#FC87A2" transform="translate(205,38)"/>
<path d="M0 0 C0.99 0.99 0.99 0.99 2 2 C1.26007813 2.39960938 0.52015625 2.79921875 -0.2421875 3.2109375 C-3.12903605 5.08370894 -4.93464397 6.98798314 -7.125 9.625 C-10.67313433 13.89104478 -10.67313433 13.89104478 -14 15 C-15.45950096 15.08870383 -16.92274046 15.12198492 -18.38493347 15.12025452 C-19.72896996 15.12231651 -19.72896996 15.12231651 -21.10015869 15.12442017 C-22.08055115 15.12082489 -23.0609436 15.11722961 -24.07104492 15.11352539 C-25.10536148 15.11367142 -26.13967804 15.11381744 -27.20533752 15.1139679 C-30.63040246 15.1132702 -34.05541329 15.10548446 -37.48046875 15.09765625 C-39.85272695 15.09579156 -42.22498554 15.0943679 -44.59724426 15.09336853 C-50.84602926 15.08954736 -57.09479107 15.07972045 -63.34356689 15.06866455 C-69.7179737 15.05844186 -76.09238424 15.05386907 -82.46679688 15.04882812 C-94.97787448 15.03809786 -107.48893601 15.02121797 -120 15 C-119.67 14.01 -119.34 13.02 -119 12 C-117.75020859 12.0199855 -116.50041718 12.03997101 -115.2127533 12.06056213 C-103.42756797 12.24310452 -91.64266985 12.37796688 -79.85639095 12.46630955 C-73.79697129 12.51325559 -67.73869387 12.57691685 -61.67993164 12.67895508 C-55.83134832 12.77683576 -49.98386262 12.83057708 -44.13452339 12.85389519 C-41.90447267 12.87050911 -39.67448124 12.90295426 -37.44489861 12.95157051 C-25.74525579 13.74194543 -25.74525579 13.74194543 -15.12893677 10.00900269 C-13.3576759 7.7298065 -12.19679869 5.61058266 -11 3 C-7.3280055 0.04449223 -4.6902641 -0.52114046 0 0 Z " fill="#FE6A83" transform="translate(312,6)"/>
<path d="M0 0 C-1.3510265 3.01015294 -2.86335687 5.11967466 -5.1875 7.453125 C-5.80367188 8.071875 -6.41984375 8.690625 -7.0546875 9.328125 C-7.69664062 9.96234375 -8.33859375 10.5965625 -9 11.25 C-9.64195312 11.8996875 -10.28390625 12.549375 -10.9453125 13.21875 C-11.56148437 13.83234375 -12.17765625 14.4459375 -12.8125 15.078125 C-13.37582031 15.63918945 -13.93914062 16.20025391 -14.51953125 16.77832031 C-16 18 -16 18 -18 18 C-18 18.66 -18 19.32 -18 20 C-19.134375 20.12375 -20.26875 20.2475 -21.4375 20.375 C-23.2009375 20.684375 -23.2009375 20.684375 -25 21 C-25.33 21.66 -25.66 22.32 -26 23 C-26.52315264 16.02463152 -26.80106454 10.39061213 -22.46484375 4.625 C-16.46990438 -2.02538607 -8.35787359 -2.78595786 0 0 Z " fill="#FCE78C" transform="translate(264,280)"/>
<path d="M0 0 C3.32759923 1.55194754 5.48580485 3.30621949 8 6 C6.8787241 8.2425518 5.80390526 9.10891162 3.875 10.6875 C0.56313861 13.44851791 -2.3980166 16.41838071 -5.32421875 19.58203125 C-7.23091349 21.19538834 -8.5793681 21.51975439 -11 22 C-14.20216073 23.7611884 -17.11726047 25.75786926 -20 28 C-21.9375 27.375 -21.9375 27.375 -24 26 C-24.75 22.875 -24.75 22.875 -25 20 C-21.535 19.505 -21.535 19.505 -18 19 C-18 18.34 -18 17.68 -18 17 C-16.6015625 15.625 -16.6015625 15.625 -14.625 14 C-9.45856503 9.62056677 -4.74222476 4.82968383 0 0 Z " fill="#FBDD64" transform="translate(264,281)"/>
<path d="M0 0 C33.99 0 67.98 0 103 0 C101 3 101 3 99.17654991 3.36914349 C98.06210219 3.36499542 98.06210219 3.36499542 96.92514038 3.36076355 C96.07256149 3.36488754 95.2199826 3.36901154 94.34156799 3.3732605 C93.40433395 3.36247467 92.46709991 3.35168884 91.50146484 3.34057617 C90.02336082 3.34123329 90.02336082 3.34123329 88.51539612 3.34190369 C85.24704408 3.33980789 81.9792003 3.31643935 78.7109375 3.29296875 C76.44935384 3.28737562 74.18776656 3.28310419 71.92617798 3.28010559 C65.96498634 3.26863461 60.00401294 3.23914796 54.04290771 3.20599365 C47.96353101 3.17534133 41.88411915 3.16161061 35.8046875 3.14648438 C23.86969562 3.11428049 11.93486594 3.06305691 0 3 C0 2.01 0 1.02 0 0 Z " fill="#F52C65" transform="translate(194,25)"/>
<path d="M0 0 C4.91360899 2.21904922 7.0807431 7.21171793 9.625 11.6875 C10.04072266 12.38681641 10.45644531 13.08613281 10.88476562 13.80664062 C13.24002569 17.94091486 14.67657788 20.97952378 13.9375 25.875 C11.9375 27.875 11.9375 27.875 9.0703125 28.37890625 C5.9375 27.875 5.9375 27.875 3.7421875 25.27734375 C3.10539063 24.13394531 2.46859375 22.99054688 1.8125 21.8125 C1.47412109 21.21630859 1.13574219 20.62011719 0.78710938 20.00585938 C-0.17650897 18.30328131 -1.12007981 16.58940269 -2.0625 14.875 C-2.89353685 13.54023411 -3.72623653 12.20649751 -4.5625 10.875 C-6.09132933 7.81734134 -6.80525714 6.21740714 -6.0625 2.875 C-4.04472213 0.71309514 -2.99707966 -0.18164119 0 0 Z " fill="#B697D0" transform="translate(195.0625,184.125)"/>
<path d="M0 0 C5.10864383 0.58400701 8.5721012 3.08301653 12.83203125 5.83984375 C13.65509766 6.35611328 14.47816406 6.87238281 15.32617188 7.40429688 C21.27017648 11.15298898 21.27017648 11.15298898 22.51953125 12.40234375 C22.70703125 15.33984375 22.70703125 15.33984375 22.51953125 18.40234375 C20.51953125 20.40234375 20.51953125 20.40234375 17.9375 20.82421875 C13.17082753 20.23587518 9.87849591 18.13817882 5.83203125 15.65234375 C5.07341797 15.20890625 4.31480469 14.76546875 3.53320312 14.30859375 C-3.65894929 9.99203272 -3.65894929 9.99203272 -5.48046875 6.40234375 C-3.86889945 0.62755377 -3.86889945 0.62755377 0 0 Z " fill="#B494CE" transform="translate(148.48046875,229.59765625)"/>
<path d="M0 0 C3 0.25 3 0.25 5 2.25 C4.82744056 8.41507816 2.44335582 12.87530568 -0.625 18.125 C-1.03878906 18.89585937 -1.45257813 19.66671875 -1.87890625 20.4609375 C-4.20230455 24.47215402 -5.12830625 25.98390401 -9.7109375 27.3828125 C-13 27.25 -13 27.25 -15 25.25 C-15.99608466 19.27349204 -13.1583241 15.37170235 -10.125 10.5 C-9.66480469 9.73300781 -9.20460938 8.96601563 -8.73046875 8.17578125 C-3.97407161 0.33117263 -3.97407161 0.33117263 0 0 Z " fill="#C7B3DD" transform="translate(318,184.75)"/>
<path d="M0 0 C0.75 2.75 0.75 2.75 1 6 C-2.15398375 10.03974822 -6.53913654 12.28819949 -10.9375 14.75 C-11.64068359 15.16121094 -12.34386719 15.57242188 -13.06835938 15.99609375 C-19.77247865 19.77854905 -19.77247865 19.77854905 -24 19 C-26 17 -26 17 -26.6875 14.25 C-25.87372461 10.40306179 -25.27569384 10.11157612 -22.125 8 C-20.42218719 6.99062826 -18.7135123 5.99109957 -17 5 C-15.72382813 4.13568359 -15.72382813 4.13568359 -14.421875 3.25390625 C-9.15005147 -0.24716674 -6.184585 -1.882265 0 0 Z " fill="#CCBCE2" transform="translate(367,231)"/>
<path d="M0 0 C3 0.25 3 0.25 5 2.25 C5.25878906 4.83203125 5.25878906 4.83203125 5.265625 8.0625 C5.26820313 9.22007812 5.27078125 10.37765625 5.2734375 11.5703125 C5.26570313 12.78460938 5.25796875 13.99890625 5.25 15.25 C5.25773437 16.46429688 5.26546875 17.67859375 5.2734375 18.9296875 C5.27085937 20.08726562 5.26828125 21.24484375 5.265625 22.4375 C5.26336914 23.50355469 5.26111328 24.56960937 5.25878906 25.66796875 C5 28.25 5 28.25 3 30.25 C0 30.5 0 30.5 -3 30.25 C-5.68487165 27.56512835 -5.25769449 26.18523019 -5.265625 22.4375 C-5.26820313 21.27992188 -5.27078125 20.12234375 -5.2734375 18.9296875 C-5.26570312 17.71539062 -5.25796875 16.50109375 -5.25 15.25 C-5.25773438 14.03570312 -5.26546875 12.82140625 -5.2734375 11.5703125 C-5.27085937 10.41273438 -5.26828125 9.25515625 -5.265625 8.0625 C-5.26336914 6.99644531 -5.26111328 5.93039063 -5.25878906 4.83203125 C-4.86964523 0.94940376 -3.82925686 0.31910474 0 0 Z " fill="#BCA0D5" transform="translate(256,167.75)"/>
<path d="M0 0 C2 2 2 2 2.203125 5.25 C0.40562718 10.85259062 -3.24371086 12.3088431 -8.25 15 C-9.53970703 15.75216797 -9.53970703 15.75216797 -10.85546875 16.51953125 C-17.20883803 20.07311068 -17.20883803 20.07311068 -20.66308594 19.75390625 C-23 19 -23 19 -25 17 C-25.40234375 14.59375 -25.40234375 14.59375 -25 12 C-23.12890625 10.15625 -23.12890625 10.15625 -20.5625 8.5 C-19.65113281 7.91089844 -18.73976562 7.32179688 -17.80078125 6.71484375 C-16.87652344 6.14894531 -15.95226562 5.58304687 -15 5 C-14.18917969 4.48566406 -13.37835938 3.97132813 -12.54296875 3.44140625 C-8.30534362 0.89305587 -5.09426748 -0.86975298 0 0 Z " fill="#C1A9D8" transform="translate(169,344)"/>
<path d="M0 0 C1.15757812 -0.00257813 2.31515625 -0.00515625 3.5078125 -0.0078125 C4.72210938 -0.00007813 5.93640625 0.00765625 7.1875 0.015625 C8.40179688 0.00789063 9.61609375 0.00015625 10.8671875 -0.0078125 C12.60355469 -0.00394531 12.60355469 -0.00394531 14.375 0 C15.44105469 0.00225586 16.50710937 0.00451172 17.60546875 0.00683594 C20.1875 0.265625 20.1875 0.265625 22.1875 2.265625 C22.5 5.265625 22.5 5.265625 22.1875 8.265625 C17.51504625 11.38059416 12.68164246 10.59413357 7.1875 10.578125 C5.52847656 10.60229492 5.52847656 10.60229492 3.8359375 10.62695312 C2.77632812 10.62759766 1.71671875 10.62824219 0.625 10.62890625 C-0.83099609 10.63337769 -0.83099609 10.63337769 -2.31640625 10.63793945 C-4.8125 10.265625 -4.8125 10.265625 -6.6328125 8.90307617 C-8.29245212 6.59943319 -8.16764723 5.03577338 -7.8125 2.265625 C-5.12762835 -0.41924665 -3.74773019 0.00793051 0 0 Z " fill="#B898D1" transform="translate(134.8125,291.734375)"/>
<path d="M0 0 C3.0625 0.1875 3.0625 0.1875 5.0625 2.1875 C4.89716924 8.37559419 2.47652651 12.81027992 -0.625 18.0625 C-1.04716797 18.83335937 -1.46933594 19.60421875 -1.90429688 20.3984375 C-5.12413787 25.9153898 -5.12413787 25.9153898 -9.1484375 27.26171875 C-11.9375 27.1875 -11.9375 27.1875 -13.875 26.125 C-15.50982815 23.14384278 -14.77841612 21.46894158 -13.9375 18.1875 C-12.44921575 15.13848172 -10.711431 12.26502926 -8.9375 9.375 C-8.24140625 8.21194336 -8.24140625 8.21194336 -7.53125 7.02539062 C-3.43444741 0.21922005 -3.43444741 0.21922005 0 0 Z " fill="#CBB9E0" transform="translate(203.9375,381.8125)"/>
<path d="M0 0 C0.99 0.103125 1.98 0.20625 3 0.3125 C5.20544434 3.6206665 5.25627135 4.68021832 5.265625 8.53125 C5.26820313 9.54574219 5.27078125 10.56023437 5.2734375 11.60546875 C5.26570313 12.66378906 5.25796875 13.72210938 5.25 14.8125 C5.25773437 15.87082031 5.26546875 16.92914063 5.2734375 18.01953125 C5.27085937 19.03402344 5.26828125 20.04851562 5.265625 21.09375 C5.26336914 22.02251953 5.26111328 22.95128906 5.25878906 23.90820312 C5 26.3125 5 26.3125 3 29.3125 C0 29.6875 0 29.6875 -3 29.3125 C-5.24305946 25.94791082 -5.25653373 24.77733729 -5.265625 20.83984375 C-5.26949219 19.24366211 -5.26949219 19.24366211 -5.2734375 17.61523438 C-5.26570312 16.50470703 -5.25796875 15.39417969 -5.25 14.25 C-5.25773438 13.13560547 -5.26546875 12.02121094 -5.2734375 10.87304688 C-5.27085937 9.81021484 -5.26828125 8.74738281 -5.265625 7.65234375 C-5.26336914 6.67644287 -5.26111328 5.70054199 -5.25878906 4.69506836 C-4.85041552 0.935335 -3.66304632 0.38156733 0 0 Z " fill="#D3C6E7" transform="translate(256,395.6875)"/>
<path d="M0 0 C1.11246094 -0.00257813 2.22492188 -0.00515625 3.37109375 -0.0078125 C4.53769531 -0.00007813 5.70429688 0.00765625 6.90625 0.015625 C8.07285156 0.00789063 9.23945313 0.00015625 10.44140625 -0.0078125 C11.55386719 -0.00523437 12.66632813 -0.00265625 13.8125 0 C14.83666016 0.00225586 15.86082031 0.00451172 16.91601562 0.00683594 C19.40625 0.265625 19.40625 0.265625 21.40625 2.265625 C21.71875 5.265625 21.71875 5.265625 21.40625 8.265625 C16.83359569 11.31406121 12.28410396 10.59450093 6.90625 10.578125 C5.31876953 10.60229492 5.31876953 10.60229492 3.69921875 10.62695312 C2.68472656 10.62759766 1.67023438 10.62824219 0.625 10.62890625 C-0.7681543 10.63337769 -0.7681543 10.63337769 -2.18945312 10.63793945 C-4.59375 10.265625 -4.59375 10.265625 -6.40039062 8.90307617 C-8.07790759 6.60129502 -7.94992283 5.04377309 -7.59375 2.265625 C-4.94675384 -0.38137116 -3.68980591 0.00812733 0 0 Z " fill="#D7CCEA" transform="translate(362.59375,291.734375)"/>
<path d="M0 0 C5.71942083 1.88068365 7.15899458 5.82099166 9.81640625 10.984375 C10.32623047 11.891875 10.83605469 12.799375 11.36132812 13.734375 C14.96523364 20.47875632 14.96523364 20.47875632 13.98999023 23.96582031 C12.75390625 26.234375 12.75390625 26.234375 10.94140625 27.359375 C7.3740075 27.15552364 6.08477283 24.82498625 3.75390625 22.234375 C2.01349162 19.81053009 0.46672251 17.29771847 -1.05859375 14.734375 C-1.46529297 14.08339844 -1.87199219 13.43242187 -2.29101562 12.76171875 C-4.43021038 9.2023863 -6.01463488 6.51957403 -5.24609375 2.234375 C-3.24609375 0.234375 -3.24609375 0.234375 0 0 Z " fill="#D9D0EB" transform="translate(308.24609375,381.765625)"/>
<path d="M0 0 C6.21115997 0.15804478 10.62038708 2.6153516 15.875 5.75 C16.64585937 6.18054688 17.41671875 6.61109375 18.2109375 7.0546875 C23.68951307 10.27624426 23.68951307 10.27624426 25.1328125 13.640625 C25 16 25 16 23 19 C17.09745069 20.12685032 13.0592785 17.11945643 8.25 14.125 C7.48300781 13.66480469 6.71601563 13.20460938 5.92578125 12.73046875 C0.34929548 9.34929548 0.34929548 9.34929548 -2 7 C-2.25 4.5 -2.25 4.5 -2 2 C-1.34 1.34 -0.68 0.68 0 0 Z " fill="#DAD1EC" transform="translate(343,344)"/>
<path d="M0 0 C0.99 0.33 1.98 0.66 3 1 C-2.14037731 6.6446105 -7.12114551 10.67474461 -14 14 C-14.66 14.33 -15.32 14.66 -16 15 C-17.39381247 15.0916994 -18.79192655 15.12193744 -20.18875122 15.12025452 C-21.50548325 15.12231651 -21.50548325 15.12231651 -22.84881592 15.12442017 C-23.81410217 15.12082489 -24.77938843 15.11722961 -25.77392578 15.11352539 C-27.29592087 15.11374443 -27.29592087 15.11374443 -28.84866333 15.1139679 C-32.21423454 15.11326928 -35.57975092 15.10547922 -38.9453125 15.09765625 C-41.27415944 15.09579189 -43.60300677 15.09436807 -45.93185425 15.09336853 C-52.07050656 15.08954476 -58.20913533 15.07971566 -64.34777832 15.06866455 C-70.60815106 15.05844742 -76.86852759 15.05387026 -83.12890625 15.04882812 C-95.4192812 15.03809329 -107.70963864 15.02101853 -120 15 C-120.33 15.66 -120.66 16.32 -121 17 C-121 15.68 -121 14.36 -121 13 C-119.71706558 12.99635437 -118.43413116 12.99270874 -117.11231995 12.98895264 C-105.00358485 12.9519618 -92.8951031 12.89414403 -80.78656101 12.81609726 C-74.56187978 12.77664045 -68.33733964 12.74444293 -62.11254883 12.72900391 C-56.10178689 12.71382584 -50.0914129 12.67935894 -44.0808239 12.63169098 C-41.79123245 12.61688921 -39.50158562 12.60895968 -37.21194649 12.60811615 C-33.99708138 12.60574122 -30.78328376 12.57861755 -27.56860352 12.54589844 C-26.62848419 12.5509288 -25.68836487 12.55595917 -24.71975708 12.56114197 C-17.24697528 12.44398821 -11.21652867 10.61910507 -5.37109375 5.859375 C-4.73300781 5.16328125 -4.09492188 4.4671875 -3.4375 3.75 C-2.44556641 2.69039062 -2.44556641 2.69039062 -1.43359375 1.609375 C-0.72396484 0.81273437 -0.72396484 0.81273437 0 0 Z " fill="#FA3E70" transform="translate(314,10)"/>
<path d="M0 0 C1.32 0.66 2.64 1.32 4 2 C4 2.99 4 3.98 4 5 C3.34 5.33 2.68 5.66 2 6 C1.505 4.515 1.505 4.515 1 3 C-0.28999405 4.29665588 -0.28999405 4.29665588 -1.60604858 5.61950684 C-9.69409667 13.7480216 -17.78736241 21.87130854 -25.8858242 29.98944855 C-30.04958776 34.16366879 -34.2114626 38.33973713 -38.36914062 42.52001953 C-42.37830677 46.55084694 -46.39227684 50.57683125 -50.40968704 54.59944153 C-51.94489858 56.13836093 -53.47834291 57.67904528 -55.01002121 59.22148132 C-57.14841203 61.37429771 -59.2928857 63.52086739 -61.43896484 65.66601562 C-62.07697525 66.31121658 -62.71498566 66.95641754 -63.37232971 67.62117004 C-67.77189568 72 -67.77189568 72 -70 72 C-68.71403737 69.17615633 -67.37292429 67.12431572 -65.177948 64.93743896 C-64.60303619 64.35977783 -64.02812439 63.7821167 -63.43579102 63.18695068 C-62.49280151 62.25474701 -62.49280151 62.25474701 -61.53076172 61.30371094 C-60.53545944 60.30797058 -60.53545944 60.30797058 -59.52005005 59.29211426 C-57.3279703 57.10142667 -55.12889375 54.91790636 -52.9296875 52.734375 C-51.40753361 51.21595163 -49.88582098 49.69708579 -48.36453247 48.17779541 C-44.36090745 44.1818037 -40.35131241 40.19185471 -36.3404541 36.203125 C-32.24809371 32.13122945 -28.16139471 28.05366074 -24.07421875 23.9765625 C-16.05501695 15.97880529 -8.02949819 7.98741897 0 0 Z " fill="#FC6C85" transform="translate(354,198)"/>
<path d="M0 0 C0.99 0.33 1.98 0.66 3 1 C-1.79819138 6.78233641 -6.96351823 12.07869185 -12.30078125 17.36328125 C-13.17776169 18.23647507 -14.05474213 19.10966888 -14.95829773 20.00932312 C-18.21528647 23.25208643 -21.47685892 26.49021475 -24.73858643 29.72821045 C-27.94953716 32.91634266 -31.15676701 36.10818801 -34.36328125 39.30078125 C-35.63973259 40.56478508 -35.63973259 40.56478508 -36.94197083 41.85432434 C-37.72335922 42.63240952 -38.50474762 43.41049469 -39.30981445 44.2121582 C-40.34523125 45.23971977 -40.34523125 45.23971977 -41.40156555 46.28804016 C-43.0797608 47.92324884 -43.0797608 47.92324884 -44 50 C-46.97 49.01 -49.94 48.02 -53 47 C-52.01 46.01 -51.02 45.02 -50 44 C-48.68 44.66 -47.36 45.32 -46 46 C-30.82 30.82 -15.64 15.64 0 0 Z " fill="#FDE689" transform="translate(104,99)"/>
<path d="M0 0 C0.99 0.66 1.98 1.32 3 2 C2.26007813 2.39960938 1.52015625 2.79921875 0.7578125 3.2109375 C-2.12903605 5.08370894 -3.93464397 6.98798314 -6.125 9.625 C-9.67313433 13.89104478 -9.67313433 13.89104478 -13 15 C-14.45950096 15.08870383 -15.92274046 15.12198492 -17.38493347 15.12025452 C-18.72896996 15.12231651 -18.72896996 15.12231651 -20.10015869 15.12442017 C-21.08055115 15.12082489 -22.0609436 15.11722961 -23.07104492 15.11352539 C-24.10536148 15.11367142 -25.13967804 15.11381744 -26.20533752 15.1139679 C-29.63040246 15.1132702 -33.05541329 15.10548446 -36.48046875 15.09765625 C-38.85272695 15.09579156 -41.22498554 15.0943679 -43.59724426 15.09336853 C-49.84602926 15.08954736 -56.09479107 15.07972045 -62.34356689 15.06866455 C-68.7179737 15.05844186 -75.09238424 15.05386907 -81.46679688 15.04882812 C-93.97787448 15.03809786 -106.48893601 15.02121797 -119 15 C-119 14.67 -119 14.34 -119 14 C-117.04348259 13.99786247 -117.04348259 13.99786247 -115.04743958 13.99568176 C-102.7608443 13.9790191 -90.47458053 13.93626753 -78.1881609 13.86790943 C-71.87140457 13.83360502 -65.554891 13.80852401 -59.23803711 13.80444336 C-53.14295079 13.80016793 -47.04841239 13.77176701 -40.95349693 13.72656822 C-38.62710447 13.71356919 -36.30064651 13.709294 -33.97422218 13.71384621 C-30.71764435 13.71873482 -27.46267864 13.6927348 -24.20629883 13.65942383 C-22.76052208 13.67236229 -22.76052208 13.67236229 -21.28553772 13.68556213 C-16.68728764 13.60661016 -14.68079845 13.54850359 -10.99980164 10.58280945 C-10.3398671 9.73048233 -9.67993256 8.87815521 -9 8 C-7.59619151 6.73557675 -6.1806001 5.48402909 -4.75 4.25 C-2.32257077 2.1815404 -2.32257077 2.1815404 0 0 Z " fill="#FE5E80" transform="translate(311,6)"/>
<path d="M0 0 C0.99 0.66 1.98 1.32 3 2 C1.8787241 4.2425518 0.80390526 5.10891162 -1.125 6.6875 C-4.43686139 9.44851791 -7.3980166 12.41838071 -10.32421875 15.58203125 C-12.23091349 17.19538834 -13.5793681 17.51975439 -16 18 C-18.57798088 19.41788948 -20.85300442 20.87894482 -23.125 22.75 C-23.74375 23.1625 -24.3625 23.575 -25 24 C-25.99 23.67 -26.98 23.34 -28 23 C-27.75 21.125 -27.75 21.125 -27 19 C-24.85331506 17.61504198 -23.56128588 17 -21 17 C-20.401875 16.54625 -19.80375 16.0925 -19.1875 15.625 C-17 14 -17 14 -14.7578125 13.28125 C-10.96022365 11.5169311 -8.55289861 8.876183 -5.6875 5.875 C-5.13771484 5.31167969 -4.58792969 4.74835938 -4.02148438 4.16796875 C-2.67404562 2.78537942 -1.33605727 1.39359084 0 0 Z " fill="#FBCA3C" transform="translate(269,285)"/>
<path d="M0 0 C3.375 0.25 3.375 0.25 7 1 C9.26594656 4.13746447 9.21498149 6.97077754 9.125 10.75 C9.10695313 11.73484375 9.08890625 12.7196875 9.0703125 13.734375 C9.03550781 14.85585938 9.03550781 14.85585938 9 16 C8.50371094 15.59007812 8.00742187 15.18015625 7.49609375 14.7578125 C3.06026897 11.23945432 -0.44912349 9.15643261 -6 8 C-4.02 5.36 -2.04 2.72 0 0 Z " fill="#E42E66" transform="translate(263,271)"/>
<path d="M0 0 C0.33 0.66 0.66 1.32 1 2 C2.14339844 1.98839844 3.28679687 1.97679687 4.46484375 1.96484375 C5.95572754 1.95546712 7.44661309 1.94636679 8.9375 1.9375 C9.69224609 1.92912109 10.44699219 1.92074219 11.22460938 1.91210938 C13.14994313 1.90347559 15.07535581 1.94775667 17 2 C18 3 18 3 18 9 C12.72 9 7.44 9 2 9 C0.11656068 5.23312136 -0.22057835 3.97041037 0 0 Z " fill="#F55385" transform="translate(205,38)"/>
<path d="M0 0 C-3.7301405 4.53665737 -7.67053566 8.77941122 -11.8125 12.9375 C-12.30468018 13.43419189 -12.79686035 13.93088379 -13.30395508 14.44262695 C-16.87624634 18 -16.87624634 18 -18 18 C-18.63955631 12.88354951 -17.28978069 9.9494818 -14.484375 5.8359375 C-10.30043417 0.66106332 -6.50619426 -0.52049554 0 0 Z " fill="#FDECA0" transform="translate(256,279)"/>
<path d="M0 0 C1.32 0.33 2.64 0.66 4 1 C2.6489735 4.01015294 1.13664313 6.11967466 -1.1875 8.453125 C-1.80367188 9.071875 -2.41984375 9.690625 -3.0546875 10.328125 C-3.69664062 10.96234375 -4.33859375 11.5965625 -5 12.25 C-5.64195312 12.8996875 -6.28390625 13.549375 -6.9453125 14.21875 C-7.56148437 14.83234375 -8.17765625 15.4459375 -8.8125 16.078125 C-9.37582031 16.63918945 -9.93914062 17.20025391 -10.51953125 17.77832031 C-12 19 -12 19 -14 19 C-14 19.66 -14 20.32 -14 21 C-16.31 21.33 -18.62 21.66 -21 22 C-19.625 20.5 -19.625 20.5 -18 19 C-17.34 19 -16.68 19 -16 19 C-15.73195557 18.40525879 -15.46391113 17.81051758 -15.18774414 17.19775391 C-13.99020301 14.98187204 -12.79681017 13.57920472 -10.99609375 11.8359375 C-10.42052734 11.27132813 -9.84496094 10.70671875 -9.25195312 10.125 C-8.65318359 9.5475 -8.05441406 8.97 -7.4375 8.375 C-6.24650616 7.21839849 -5.05759995 6.05964222 -3.87109375 4.8984375 C-3.34443115 4.38974121 -2.81776855 3.88104492 -2.27514648 3.35693359 C-0.8835783 2.00599895 -0.8835783 2.00599895 0 0 Z " fill="#FCE177" transform="translate(260,279)"/>
<path d="M0 0 C0.99 0.33 1.98 0.66 3 1 C3 1.66 3 2.32 3 3 C1.49208698 4.24566727 -0.01872402 5.48830801 -1.5546875 6.69921875 C-3.16322754 7.97342875 -3.16322754 7.97342875 -4 10.1875 C-5.55171031 12.99997494 -8.01850603 13.06462934 -11 14 C-11.886875 14.721875 -12.77375 15.44375 -13.6875 16.1875 C-14.450625 16.785625 -15.21375 17.38375 -16 18 C-16.99 17.67 -17.98 17.34 -19 17 C-18.71484375 15.10546875 -18.71484375 15.10546875 -18 13 C-16.14865427 12.09115755 -14.29211147 11.19129135 -12.41015625 10.34765625 C-7.67553565 7.70025899 -3.89454213 3.73492975 0 0 Z " fill="#F12265" transform="translate(316,11)"/>
<path d="M0 0 C0.99 0.33 1.98 0.66 3 1 C1.40285037 4.90516933 -1.25498594 7.62204951 -4.1875 10.5625 C-4.64447266 11.04396484 -5.10144531 11.52542969 -5.57226562 12.02148438 C-9.15401891 15.6330442 -12.35476745 17.20413454 -17 19 C-17.99 19.66 -18.98 20.32 -20 21 C-18.42406669 16.90641714 -15.46277202 14.44859603 -12.25 11.625 C-11.16575523 10.65335985 -10.08241258 9.68071205 -9 8.70703125 C-8.48179687 8.24248535 -7.96359375 7.77793945 -7.4296875 7.29931641 C-4.85521694 4.95960802 -2.42520316 2.49256991 0 0 Z " fill="#FCD852" transform="translate(266,283)"/>
<path d="M0 0 C5.94 0.33 11.88 0.66 18 1 C18.33 2.98 18.66 4.96 19 7 C16.20677782 6.91327254 13.41687472 6.80644643 10.625 6.6875 C9.8309375 6.66494141 9.036875 6.64238281 8.21875 6.61914062 C6.13784419 6.52214925 4.06558668 6.27005175 2 6 C0 3 0 3 0 0 Z " fill="#E32D6B" transform="translate(204,34)"/>
<path d="M0 0 C2.81288705 0.14019692 5.62516885 0.28687955 8.4375 0.4375 C9.23994141 0.47681641 10.04238281 0.51613281 10.86914062 0.55664062 C16.88671875 0.88671875 16.88671875 0.88671875 18 2 C18.04063832 3.66617115 18.042721 5.33388095 18 7 C17.67 6.34 17.34 5.68 17 5 C12.05 5 7.1 5 2 5 C2 4.34 2 3.68 2 3 C1.34 3 0.68 3 0 3 C0 2.01 0 1.02 0 0 Z " fill="#FA6690" transform="translate(206,46)"/>
<path d="M0 0 C-3.85524776 4.90025997 -7.6362389 8.76150273 -13 12 C-13.99 11.67 -14.98 11.34 -16 11 C-7.9270246 -0.67945925 -7.9270246 -0.67945925 0 0 Z " fill="#FD6A8C" transform="translate(311,6)"/>
<path d="M0 0 C0.66 0.33 1.32 0.66 2 1 C1.39671875 1.66386719 0.7934375 2.32773437 0.171875 3.01171875 C-0.62734375 3.89472656 -1.4265625 4.77773438 -2.25 5.6875 C-3.03890625 6.55761719 -3.8278125 7.42773438 -4.640625 8.32421875 C-7.66198026 11.75075576 -10.46539278 15.19808918 -13 19 C-14.14507772 13.5388601 -14.14507772 13.5388601 -13 10 C-9.32860011 5.94923617 -4.53794764 2.98581994 0 0 Z " fill="#B48AC1" transform="translate(287,282)"/>
<path d="M0 0 C0.33 0.66 0.66 1.32 1 2 C6.28 2 11.56 2 17 2 C17.33 3.65 17.66 5.3 18 7 C17.67 6.34 17.34 5.68 17 5 C11.39 5 5.78 5 0 5 C0 3.35 0 1.7 0 0 Z " fill="#EE437A" transform="translate(205,38)"/>
<path d="M0 0 C2.0625 0.4375 2.0625 0.4375 4 1 C4.33 3.64 4.66 6.28 5 9 C1.37 8.01 -2.26 7.02 -6 6 C-4 4 -2 2 0 0 Z " fill="#D11E59" transform="translate(263,273)"/>
<path d="M0 0 C0.33 0.66 0.66 1.32 1 2 C5.95 2 10.9 2 16 2 C16.33 3.32 16.66 4.64 17 6 C11.72 5.67 6.44 5.34 1 5 C0.67 3.35 0.34 1.7 0 0 Z " fill="#FD799A" transform="translate(207,49)"/>
<path d="M0 0 C-1.58667578 3.90285767 -4.13350481 6.33520982 -7.125 9.25 C-8.03507813 10.14203125 -8.94515625 11.0340625 -9.8828125 11.953125 C-10.58148438 12.62859375 -11.28015625 13.3040625 -12 14 C-12.33 13.34 -12.66 12.68 -13 12 C-10.72759866 6.77686856 -6.35497737 0 0 0 Z " fill="#FCEEB2" transform="translate(251,279)"/>
<path d="M0 0 C0.99 0.33 1.98 0.66 3 1 C-1.95912807 6.13623978 -1.95912807 6.13623978 -5 8 C-5.99 7.67 -6.98 7.34 -8 7 C-7.75 5.125 -7.75 5.125 -7 3 C-4.85331506 1.61504198 -3.56128588 1 -1 1 C-0.67 0.67 -0.34 0.34 0 0 Z " fill="#FCC34C" transform="translate(249,301)"/>
<path d="M0 0 C1.13480527 3.60993172 1.10015767 6.9842327 1.0625 10.75 C1.05347656 11.92046875 1.04445313 13.0909375 1.03515625 14.296875 C1.02355469 15.18890625 1.01195312 16.0809375 1 17 C0.34 17 -0.32 17 -1 17 C-3.17712665 10.23367832 -3.04714611 6.44588601 0 0 Z " fill="#FEB461" transform="translate(43,141)"/>
<path d="M0 0 C0.99 0.33 1.98 0.66 3 1 C3 1.66 3 2.32 3 3 C1.02053408 4.36363208 -0.9819245 5.69418644 -3 7 C-3.515625 7.556875 -4.03125 8.11375 -4.5625 8.6875 C-6.53931728 10.49242013 -8.39661158 10.64819075 -11 11 C-7.33333333 7.33333333 -3.66666667 3.66666667 0 0 Z " fill="#ED2F6B" transform="translate(316,11)"/>
<path d="M0 0 C5.94 0.99 5.94 0.99 12 2 C10.35 3.65 8.7 5.3 7 7 C5.82780457 6.21654285 4.66236332 5.42297164 3.5 4.625 C2.8503125 4.18414062 2.200625 3.74328125 1.53125 3.2890625 C1.0259375 2.86367188 0.520625 2.43828125 0 2 C0 1.34 0 0.68 0 0 Z " fill="#AC7FB9" transform="translate(247,313)"/>
<path d="M0 0 C0 3 0 3 -1.3125 4.38671875 C-2.875 5.59114583 -4.4375 6.79557292 -6 8 C-6.33 6.02 -6.66 4.04 -7 2 C-4.69 1.34 -2.38 0.68 0 0 Z " fill="#FCD066" transform="translate(246,299)"/>
<path d="M0 0 C-0.99 0.66 -1.98 1.32 -3 2 C-4.57002782 3.19853592 -6.13200803 4.40765846 -7.6875 5.625 C-8.89986328 6.57246094 -8.89986328 6.57246094 -10.13671875 7.5390625 C-10.75160156 8.02117188 -11.36648438 8.50328125 -12 9 C-12.66 8.67 -13.32 8.34 -14 8 C-10.14108395 2.71185579 -6.82297589 -0.58482651 0 0 Z " fill="#FE7896" transform="translate(311,6)"/>
<path d="M0 0 C2.0625 0.4375 2.0625 0.4375 4 1 C4.33 3.64 4.66 6.28 5 9 C3.68 8.34 2.36 7.68 1 7 C1.33 5.35 1.66 3.7 2 2 C1.01 1.67 0.02 1.34 -1 1 C-0.67 0.67 -0.34 0.34 0 0 Z " fill="#DC2260" transform="translate(263,273)"/>
<path d="M0 0 C0.66 0.33 1.32 0.66 2 1 C0.66667905 4.99996286 -1.4957827 5.83782337 -5 8 C-5.66 7.67 -6.32 7.34 -7 7 C-4.69 4.69 -2.38 2.38 0 0 Z " fill="#F2C81E" transform="translate(127,121)"/>
<path d="M0 0 C0.59296875 0.22558594 1.1859375 0.45117188 1.796875 0.68359375 C1.19875 0.93109375 0.600625 1.17859375 -0.015625 1.43359375 C-2.48960021 2.84729387 -3.63682755 4.33414758 -5.203125 6.68359375 C-6.193125 6.35359375 -7.183125 6.02359375 -8.203125 5.68359375 C-7.30284912 4.64827649 -6.38219465 3.6306521 -5.453125 2.62109375 C-4.68742187 1.76837891 -4.68742187 1.76837891 -3.90625 0.8984375 C-2.203125 -0.31640625 -2.203125 -0.31640625 0 0 Z " fill="#F85281" transform="translate(313.203125,8.31640625)"/>
<path d="M0 0 C0.99 1.32 1.98 2.64 3 4 C0.525 3.01 0.525 3.01 -2 2 C-1.34 1.34 -0.68 0.68 0 0 Z M-3 2 C-2.67 3.32 -2.34 4.64 -2 6 C-3.32 6.33 -4.64 6.66 -6 7 C-4.125 3.125 -4.125 3.125 -3 2 Z " fill="#FA7699" transform="translate(272,261)"/>
</svg>
